<svg width="78" height="29" viewBox="0 0 78 29" fill="none" xmlns="http://www.w3.org/2000/svg">
<path d="M7.84091 23H1.125V5.54545H7.77273C9.56818 5.54545 11.1193 5.89489 12.4261 6.59375C13.7386 7.28693 14.75 8.28693 15.4602 9.59375C16.1761 10.8949 16.5341 12.4545 16.5341 14.2727C16.5341 16.0909 16.179 17.6534 15.4688 18.9602C14.7585 20.2614 13.7528 21.2614 12.4517 21.9602C11.1506 22.6534 9.61364 23 7.84091 23ZM5.86364 18.9773H7.67045C8.53409 18.9773 9.26989 18.8381 9.87784 18.5597C10.4915 18.2812 10.9574 17.8011 11.2756 17.1193C11.5994 16.4375 11.7614 15.4886 11.7614 14.2727C11.7614 13.0568 11.5966 12.108 11.267 11.4261C10.9432 10.7443 10.4659 10.2642 9.83523 9.98579C9.21023 9.70739 8.44318 9.56818 7.53409 9.56818H5.86364V18.9773ZM18.7947 23V9.90909H23.4993V23H18.7947ZM21.147 8.54545C20.5107 8.54545 19.9652 8.33523 19.5107 7.91477C19.0561 7.49432 18.8288 6.98864 18.8288 6.39773C18.8288 5.80682 19.0561 5.30114 19.5107 4.88068C19.9652 4.46023 20.5107 4.25 21.147 4.25C21.7891 4.25 22.3345 4.46023 22.7834 4.88068C23.2379 5.30114 23.4652 5.80682 23.4652 6.39773C23.4652 6.98864 23.2379 7.49432 22.7834 7.91477C22.3345 8.33523 21.7891 8.54545 21.147 8.54545ZM32.2031 23.2386C30.7827 23.2386 29.5668 22.9574 28.5554 22.3949C27.544 21.8267 26.7685 21.0369 26.2287 20.0256C25.6889 19.0085 25.419 17.8295 25.419 16.4886C25.419 15.1477 25.6889 13.9716 26.2287 12.9602C26.7685 11.9432 27.544 11.1534 28.5554 10.5909C29.5668 10.0227 30.7827 9.73864 32.2031 9.73864C33.4872 9.73864 34.598 9.97159 35.5355 10.4375C36.4787 10.8977 37.2088 11.5511 37.7259 12.3977C38.2429 13.2386 38.5043 14.2273 38.5099 15.3636H34.1463C34.0838 14.6761 33.8849 14.1534 33.5497 13.7955C33.2202 13.4318 32.794 13.25 32.2713 13.25C31.8622 13.25 31.5043 13.3693 31.1974 13.608C30.8906 13.8409 30.652 14.196 30.4815 14.6733C30.3111 15.1449 30.2259 15.7386 30.2259 16.4545C30.2259 17.1705 30.3111 17.767 30.4815 18.2443C30.652 18.7159 30.8906 19.071 31.1974 19.3097C31.5043 19.5426 31.8622 19.6591 32.2713 19.6591C32.6179 19.6591 32.9247 19.5795 33.1918 19.4205C33.4588 19.2557 33.6747 19.017 33.8395 18.7045C34.0099 18.3864 34.1122 18 34.1463 17.5455H38.5099C38.4929 18.6989 38.2287 19.7045 37.7173 20.5625C37.206 21.4148 36.4815 22.0739 35.544 22.5398C34.6122 23.0057 33.4986 23.2386 32.2031 23.2386ZM44.6783 19.8977L44.7124 14.3068H45.326L48.4964 9.90909H53.7805L48.4624 16.7614H47.1328L44.6783 19.8977ZM40.451 23V5.54545H45.1555V23H40.451ZM48.5305 23L45.5305 17.8182L48.5987 14.4773L53.9169 23H48.5305ZM58.2209 27.9091C57.6811 27.9091 57.1669 27.8665 56.6783 27.7812C56.1896 27.7017 55.7607 27.5909 55.3913 27.4489L56.4141 24.108C56.8004 24.2443 57.1527 24.3324 57.4709 24.3722C57.7947 24.4119 58.0703 24.3892 58.2976 24.304C58.5305 24.2188 58.6982 24.0568 58.8004 23.8182L58.9027 23.5795L54.3004 9.90909H59.2095L61.3232 18.9773H61.4595L63.6072 9.90909H68.5504L63.7777 24.0909C63.5391 24.8125 63.1925 25.4602 62.7379 26.0341C62.2891 26.6136 61.6982 27.071 60.9652 27.4062C60.2322 27.7415 59.3175 27.9091 58.2209 27.9091Z" fill="black"/>
<path fill-rule="evenodd" clip-rule="evenodd" d="M71.25 0H69V4.5H71.25C70.0074 4.5 69 5.50737 69 6.75V9H73.5V6.75C73.5 7.99263 74.5074 9 75.75 9H78V4.5H75.75C76.9926 4.5 78 3.49264 78 2.25V0H73.5V2.25C73.5 1.00736 72.4926 0 71.25 0ZM73.5 4.5H71.25C72.4926 4.5 73.5 5.50737 73.5 6.75V4.5ZM73.5 4.5V2.25C73.5 3.49264 74.5074 4.5 75.75 4.5H73.5Z" fill="black"/>
</svg>
